<?xml version="1.0" encoding="UTF-8"?>
<svg version="1.1" xmlns="http://www.w3.org/2000/svg" width="367" height="84">
<path d="M0 0 C1.16015625 0.00322266 2.3203125 0.00644531 3.515625 0.00976562 C5.32546875 0.02233398 5.32546875 0.02233398 7.171875 0.03515625 C9.00492187 0.04192383 9.00492187 0.04192383 10.875 0.04882812 C13.89067446 0.0606081 16.90624998 0.07705772 19.921875 0.09765625 C17.28292352 16.13147517 11.98624244 27.90422072 -1.16015625 37.8828125 C-3.078125 39.09765625 -3.078125 39.09765625 -5.078125 39.09765625 C-4.72878906 39.773125 -4.37945312 40.44859375 -4.01953125 41.14453125 C-3.56449219 42.0365625 -3.10945313 42.92859375 -2.640625 43.84765625 C-2.18816406 44.729375 -1.73570312 45.61109375 -1.26953125 46.51953125 C1.91876148 53.41878766 1.60451232 59.70665864 -0.828125 66.78515625 C-3.87001356 74.44268822 -7.89922185 78.26497695 -15.078125 82.09765625 C-21.78344047 84.33276141 -29.01604 84.00850804 -35.453125 81.09765625 C-42.53855521 77.04883899 -46.38005511 71.06594683 -48.609375 63.31640625 C-50.04391971 56.52622794 -49.17305806 50.33096002 -46.078125 44.09765625 C-43.35699636 40.2410443 -40.666188 36.9270304 -36.4453125 34.72265625 C-33.86366903 33.28426433 -33.86366903 33.28426433 -33.109375 30.49609375 C-32.9340625 29.49835937 -32.75875 28.500625 -32.578125 27.47265625 C-30.42665925 17.61870537 -26.35824339 10.96845843 -18.078125 5.09765625 C-12.03342081 1.48838642 -7.07173123 -0.03466535 0 0 Z M-35.078125 48.09765625 C-37.97415105 52.79121572 -37.69754254 57.75517994 -37.078125 63.09765625 C-35.30509452 66.91649114 -33.77944649 68.59205239 -30.390625 71.03515625 C-25.98889314 72.44703251 -22.4916467 72.53993209 -18.078125 71.09765625 C-14.53722828 68.62640541 -12.4445191 66.19683854 -11.078125 62.09765625 C-10.27730466 56.39054421 -10.44932805 52.25803584 -13.953125 47.53515625 C-16.21934306 44.81459978 -17.63713455 43.27907591 -21.25 42.82421875 C-27.75742958 42.56786546 -30.65632917 43.23368083 -35.078125 48.09765625 Z " fill="#FEFEFD" transform="translate(323.078125,-0.09765625)"/>
<path d="M0 0 C1.16015625 0.00322266 2.3203125 0.00644531 3.515625 0.00976562 C5.32546875 0.02233398 5.32546875 0.02233398 7.171875 0.03515625 C9.00492187 0.04192383 9.00492187 0.04192383 10.875 0.04882812 C13.89067446 0.0606081 16.90624998 0.07705772 19.921875 0.09765625 C17.2968306 16.04697815 12.05311384 27.87965768 -1.0625 37.78515625 C-3.078125 39.09765625 -3.078125 39.09765625 -6.078125 40.09765625 C-8.19921875 38.91796875 -8.19921875 38.91796875 -10.515625 37.22265625 C-15.98174505 33.24561459 -19.56834769 32.97256572 -26.328125 33.03515625 C-28.22304688 33.04869141 -28.22304688 33.04869141 -30.15625 33.0625 C-31.12046875 33.07410156 -32.0846875 33.08570313 -33.078125 33.09765625 C-32.7857034 24.32500834 -30.00886779 16.62003661 -24.18359375 9.91796875 C-17.08954744 3.39760271 -9.62575568 -0.04718508 0 0 Z " fill="#54A940" transform="translate(323.078125,-0.09765625)"/>
<path d="M0 0 C1.9375 1.75 1.9375 1.75 3 3 C1.66667905 6.99996286 -0.4957827 7.83782337 -4 10 C-6 9 -8 8 -10 7 C-11.91500303 6.84101146 -11.91500303 6.84101146 -14 6.875 C-14.70125 6.87242188 -15.4025 6.86984375 -16.125 6.8671875 C-18.09153775 6.88622764 -18.09153775 6.88622764 -20 8 C-20 9.65 -20 11.3 -20 13 C-15.63230014 14.69854995 -11.33425893 16.20367672 -6.8125 17.4375 C-2.0025949 18.85608952 1.25392985 20.67190647 4.3125 24.75 C5.86583354 29.83363704 5.71528396 33.62241608 3.3125 38.25 C-0.92757508 43.29225145 -5.1795116 46.54681103 -11.83203125 47.3359375 C-19.39098984 47.43500642 -24.93855655 46.72137044 -30.6328125 41.50390625 C-32.0625 39.9375 -32.0625 39.9375 -34 37 C-33 34 -33 34 -30.71484375 32.83203125 C-29.79832031 32.49558594 -28.88179688 32.15914062 -27.9375 31.8125 C-27.01839844 31.46832031 -26.09929687 31.12414062 -25.15234375 30.76953125 C-24.44207031 30.51558594 -23.73179687 30.26164062 -23 30 C-22.73832031 30.63164063 -22.47664063 31.26328125 -22.20703125 31.9140625 C-21.07159137 34.3633914 -21.07159137 34.3633914 -17.6875 35.375 C-13.83205311 36.02846557 -12.22539747 36.18188653 -9 34 C-8.33766408 31.4547113 -8.33766408 31.4547113 -8 29 C-9.07378906 28.76925781 -10.14757812 28.53851563 -11.25390625 28.30078125 C-27.27867341 24.69210743 -27.27867341 24.69210743 -32.4375 18.1875 C-33.67064172 13.39194885 -33.49731421 9.40905694 -31.875 4.8125 C-28.89634924 0.34452386 -25.69474479 -2.28299259 -20.75 -4.375 C-12.78789681 -5.7020172 -6.62013981 -4.5935664 0 0 Z " fill="#FEFEFE" transform="translate(362,36)"/>
<path d="M0 0 C4.29 0 8.58 0 13 0 C13.67546875 1.70027344 14.3509375 3.40054688 15.046875 5.15234375 C15.94782341 7.41409965 16.8488703 9.67581632 17.75 11.9375 C18.1934375 13.05447266 18.636875 14.17144531 19.09375 15.32226562 C21.60137406 21.60976419 24.18426991 27.84382632 27 34 C31.18114942 25.32094741 34.86483748 16.51140975 38.37109375 7.54199219 C38.69851562 6.70829102 39.0259375 5.87458984 39.36328125 5.015625 C39.65501221 4.26571289 39.94674316 3.51580078 40.24731445 2.74316406 C41 1 41 1 42 0 C44.01964199 -0.07244053 46.04167124 -0.08377188 48.0625 -0.0625 C49.71958984 -0.04896484 49.71958984 -0.04896484 51.41015625 -0.03515625 C52.26480469 -0.02355469 53.11945312 -0.01195313 54 0 C53.41439117 3.33792458 52.59626891 6.26814687 51.25 9.37548828 C50.89292969 10.20629913 50.53585938 11.03710999 50.16796875 11.89309692 C49.58982422 13.21831863 49.58982422 13.21831863 49 14.5703125 C48.60425781 15.48835663 48.20851562 16.40640076 47.80078125 17.3522644 C46.53840819 20.27850216 45.26947658 23.20183783 44 26.125 C42.73178267 29.05583104 41.46492895 31.98724433 40.19921875 34.91915894 C39.41189445 36.74178984 38.62288571 38.56369422 37.83203125 40.38479614 C37.47496094 41.20930267 37.11789063 42.0338092 36.75 42.88330078 C36.27820312 43.96987473 36.27820312 43.96987473 35.796875 45.07839966 C35.12787535 46.69163881 34.5522772 48.34316839 34 50 C29.38 50 24.76 50 20 50 C19.60731934 49.04335449 19.21463867 48.08670898 18.81005859 47.10107422 C17.32383324 43.48116411 15.8361821 39.86184128 14.34814453 36.24267578 C13.70974717 34.68944507 13.07171387 33.13606466 12.43408203 31.58251953 C11.50654153 29.32282638 10.57782926 27.06361984 9.6484375 24.8046875 C9.34371521 24.06353699 9.03899292 23.32238647 8.72503662 22.55877686 C7.24443066 18.96980219 5.74528705 15.39083764 4.20019531 11.82910156 C3.91963287 11.18224396 3.63907043 10.53538635 3.3500061 9.868927 C2.58826497 8.1207321 1.82093512 6.37497539 1.05322266 4.62939453 C0 2 0 2 0 0 Z " fill="#FEFEFE" transform="translate(0,32)"/>
<path d="M0 0 C5.4561218 3.18784644 8.7485787 7.01917361 10.7734375 13.09375 C10.86526692 14.63324329 10.90346102 16.17652855 10.8984375 17.71875 C10.90230469 18.91371094 10.90230469 18.91371094 10.90625 20.1328125 C10.7734375 22.09375 10.7734375 22.09375 9.7734375 23.09375 C8.14086992 23.25089654 6.50208412 23.34460414 4.86328125 23.41015625 C3.87392578 23.45205078 2.88457031 23.49394531 1.86523438 23.53710938 C0.82431641 23.57642578 -0.21660156 23.61574219 -1.2890625 23.65625 C-2.33384766 23.69943359 -3.37863281 23.74261719 -4.45507812 23.78710938 C-7.04543134 23.89356225 -9.63588436 23.9955776 -12.2265625 24.09375 C-7.78379526 27.05559482 -3.68474066 26.04469678 1.5234375 25.7734375 C4.7734375 26.09375 4.7734375 26.09375 6.7109375 27.9140625 C7.7734375 30.09375 7.7734375 30.09375 7.7734375 33.09375 C1.55197206 36.48727661 -4.2087402 36.93253354 -11.2265625 36.09375 C-17.45290625 34.21676469 -21.01719728 30.8536879 -24.30078125 25.265625 C-26.35874109 20.43766859 -26.19578595 14.60208365 -24.31640625 9.73828125 C-19.30601805 1.15134585 -9.70548928 -3.95030441 0 0 Z M-13.2265625 11.09375 C-13.5565625 12.08375 -13.8865625 13.07375 -14.2265625 14.09375 C-9.6065625 14.09375 -4.9865625 14.09375 -0.2265625 14.09375 C-1.79746393 10.0970214 -1.79746393 10.0970214 -4.4765625 8.65625 C-8.30146963 7.87388263 -10.02806302 8.98564807 -13.2265625 11.09375 Z " fill="#FDFEFD" transform="translate(174.2265625,46.90625)"/>
<path d="M0 0 C3.3 0 6.6 0 10 0 C10 0.66 10 1.32 10 2 C10.85464844 1.51466797 10.85464844 1.51466797 11.7265625 1.01953125 C16.48068047 -1.11247011 21.4599322 -0.49398401 26.3125 1.0625 C29.74803375 3.53928014 31.60438088 6.05097993 33 10 C33.47450742 14.32639117 33.37846347 18.59197595 33.25 22.9375 C33.23195312 24.09830078 33.21390625 25.25910156 33.1953125 26.45507812 C33.14842089 29.30374345 33.07668563 32.15198099 33 35 C29.37 35 25.74 35 22 35 C21.96261719 33.36289063 21.92523438 31.72578125 21.88671875 30.0390625 C21.82107703 27.90101806 21.75462909 25.76299826 21.6875 23.625 C21.66494141 22.54476562 21.64238281 21.46453125 21.61914062 20.3515625 C21.5659668 18.8046875 21.5659668 18.8046875 21.51171875 17.2265625 C21.48553467 16.27346191 21.45935059 15.32036133 21.43237305 14.33837891 C21.28968994 13.56671387 21.14700684 12.79504883 21 12 C18.23011924 9.68456793 18.23011924 9.68456793 15.375 10.3125 C13.06498035 10.7741514 13.06498035 10.7741514 12 12 C11.84259395 13.70563778 11.74906608 15.41727244 11.68359375 17.12890625 C11.64169922 18.16337891 11.59980469 19.19785156 11.55664062 20.26367188 C11.51732422 21.35228516 11.47800781 22.44089844 11.4375 23.5625 C11.39431641 24.65498047 11.35113281 25.74746094 11.30664062 26.87304688 C11.20018042 29.58186768 11.09955193 32.29091651 11 35 C7.37 35 3.74 35 0 35 C0 23.45 0 11.9 0 0 Z " fill="#FEFEFE" transform="translate(191,47)"/>
<path d="M0 0 C9 0 9 0 12 1 C12.66 0.67 13.32 0.34 14 0 C18.70697417 -0.57425085 22.12144792 -0.45554552 26.375 1.75 C31.81575402 6.41350345 31.81575402 6.41350345 32.34057617 10.93261719 C32.3170105 12.5979248 32.3170105 12.5979248 32.29296875 14.296875 C32.2784668 16.10478516 32.2784668 16.10478516 32.26367188 17.94921875 C32.23853516 19.20347656 32.21339844 20.45773438 32.1875 21.75 C32.16719727 23.65458984 32.16719727 23.65458984 32.14648438 25.59765625 C32.1111324 28.73219844 32.06178248 31.86588545 32 35 C28.7 35 25.4 35 22 35 C21.96261719 33.44667969 21.92523438 31.89335938 21.88671875 30.29296875 C21.82106776 28.257788 21.75462012 26.22263283 21.6875 24.1875 C21.66494141 23.16333984 21.64238281 22.13917969 21.61914062 21.08398438 C21.5659668 19.60961914 21.5659668 19.60961914 21.51171875 18.10546875 C21.48553467 17.19949951 21.45935059 16.29353027 21.43237305 15.36010742 C20.9228978 12.57913782 20.29996505 11.61669347 18 10 C14.88006394 10.07542341 14.88006394 10.07542341 12 11 C10.76939579 13.46120841 10.7942277 15.25776866 10.68359375 18.0078125 C10.64169922 18.99394531 10.59980469 19.98007813 10.55664062 20.99609375 C10.51732422 22.02863281 10.47800781 23.06117187 10.4375 24.125 C10.39431641 25.16527344 10.35113281 26.20554687 10.30664062 27.27734375 C10.20037232 29.8513983 10.09966473 32.42568131 10 35 C6.7 35 3.4 35 0 35 C0 23.45 0 11.9 0 0 Z " fill="#FDFDFD" transform="translate(76,47)"/>
<path d="M0 0 C3.63 0 7.26 0 11 0 C11 2.64 11 5.28 11 8 C13.97 8 16.94 8 20 8 C20 10.97 20 13.94 20 17 C17.03 17 14.06 17 11 17 C11 22.61 11 28.22 11 34 C13.97 34 16.94 34 20 34 C20 37.3 20 40.6 20 44 C10.38403042 45.42015209 10.38403042 45.42015209 5.5 43.9375 C2.34149333 41.48965733 1.44973058 39.73921865 0 36 C-0.34624045 32.69649638 -0.28490572 29.44178977 -0.1875 26.125 C-0.17396484 25.24585937 -0.16042969 24.36671875 -0.14648438 23.4609375 C-0.11136623 21.30702448 -0.05756694 19.15342996 0 17 C-1.65 17 -3.3 17 -5 17 C-5 14.69 -5 12.38 -5 10 C-4.360625 9.835 -3.72125 9.67 -3.0625 9.5 C-0.83880759 8.218214 -0.83880759 8.218214 -0.51171875 6.0859375 C-0.2724022 4.06424845 -0.13106972 2.03158061 0 0 Z " fill="#FEFEFE" transform="translate(232,39)"/>
<path d="M0 0 C3.84516129 2.22298387 3.84516129 2.22298387 5 5.6875 C2.45702501 7.66895513 -0.01873178 9.43450321 -3 10.6875 C-6.125 9.375 -6.125 9.375 -9 7.6875 C-12.35807013 8.26870444 -14.24218851 8.72301265 -16.375 11.4375 C-17.21251275 14.4525459 -17.4458133 16.56680687 -17 19.6875 C-15.08333333 22.77083333 -15.08333333 22.77083333 -12 24.6875 C-7.83447809 24.61442067 -4.57486672 23.83242003 -1 21.6875 C3.91728701 26.00511787 3.91728701 26.00511787 4.25 28.75 C2.1811694 31.95668743 -0.47993843 33.4853774 -4 34.6875 C-10.18516579 35.50204426 -15.80311539 35.43409123 -21 31.6875 C-25.79571844 26.90309222 -28.12878482 23.36066147 -28.3125 16.4375 C-28.25414014 10.91519833 -27.32126032 8.08592583 -24 3.6875 C-16.93323294 -3.01686875 -8.68187749 -4.58978237 0 0 Z " fill="#FDFEFD" transform="translate(141,48.3125)"/>
<path d="M0 0 C-0.28970345 11.9041781 -4.72549285 22.41355707 -13 31 C-20.25075529 37.41691843 -20.25075529 37.41691843 -25 39 C-26.83984375 37.85546875 -26.83984375 37.85546875 -28.9375 36.1875 C-34.29053639 32.38030745 -39.56633219 31.6313921 -46 31 C-46 30.67 -46 30.34 -46 30 C-45.13890625 29.75894531 -44.2778125 29.51789062 -43.390625 29.26953125 C-39.7157561 27.89357227 -36.85940452 26.01417499 -33.75 23.6875 C-32.52475511 22.79164543 -31.29949383 21.89581328 -30.07421875 21 C-29.42243652 20.51917969 -28.7706543 20.03835937 -28.09912109 19.54296875 C-25.05784088 17.30746154 -21.99472563 15.10260117 -18.93261719 12.89575195 C-16.66287826 11.2598472 -14.39564644 9.62052494 -12.12890625 7.98046875 C-11.43812988 7.48208496 -10.74735352 6.98370117 -10.03564453 6.47021484 C-8.66994028 5.48385469 -7.30635376 4.49455619 -5.94482422 3.50244141 C-1.1103471 0 -1.1103471 0 0 0 Z " fill="#5DB948" transform="translate(342,1)"/>
<path d="M0 0 C3.63 0 7.26 0 11 0 C11 11.55 11 23.1 11 35 C7.37 35 3.74 35 0 35 C0 23.45 0 11.9 0 0 Z " fill="#FEFEFE" transform="translate(59,47)"/>
<path d="M0 0 C0.721875 0.391875 1.44375 0.78375 2.1875 1.1875 C3.5075 7.5475 3.5075 7.5475 2.1875 10.1875 C-0.95809343 11.76029672 -3.47565642 10.9290208 -6.8125 10.1875 C-7.8125 9.1875 -7.8125 9.1875 -8.1875 5.8125 C-7.8125 2.1875 -7.8125 2.1875 -5.625 0.125 C-2.8125 -0.8125 -2.8125 -0.8125 0 0 Z " fill="#FEFEFE" transform="translate(66.8125,31.8125)"/>
</svg>
