<?xml version="1.0" encoding="UTF-8"?>
<svg version="1.1" xmlns="http://www.w3.org/2000/svg" width="1000" height="1000">
<path d="M0 0 C330 0 660 0 1000 0 C1000 330 1000 660 1000 1000 C670 1000 340 1000 0 1000 C0 670 0 340 0 0 Z " fill="#000000" transform="translate(0,0)"/>
<path d="M0 0 C1.14226295 -0.00087616 1.14226295 -0.00087616 2.30760193 -0.00177002 C4.81320507 0.00100659 7.31760392 0.03207687 9.82299805 0.06347656 C11.56462453 0.0709405 13.30625944 0.07663271 15.04789734 0.08062744 C19.62329451 0.09587183 24.19818066 0.13514313 28.77337646 0.17944336 C33.44544564 0.22042197 38.11759769 0.23864397 42.78979492 0.25878906 C51.95082626 0.30163872 61.11147897 0.36987543 70.2722168 0.45410156 C70.46448349 1.04497559 70.65675018 1.63584961 70.85484314 2.24462891 C75.76281935 17.27462468 81.01375083 32.14622416 86.53393555 46.96142578 C88.8437754 53.16348451 91.13914048 59.37088747 93.43237305 65.57910156 C93.67120335 66.22542542 93.91003365 66.87174927 94.15610123 67.53765869 C99.54799345 82.13664466 104.8055887 96.78308565 110.04978561 111.43563843 C117.52222689 132.31354015 125.07538209 153.15753676 132.7722168 173.95410156 C140.23599718 194.12393457 147.57814706 214.33406311 154.8347168 234.57910156 C155.07588982 235.25191414 155.31706284 235.92472672 155.56554413 236.61792755 C156.05190482 237.97476558 156.53825966 239.33160571 157.02460861 240.68844795 C158.23067202 244.05310199 159.43690466 247.41769531 160.64331055 250.78222656 C160.9990918 251.77453592 160.9990918 251.77453592 161.36206055 252.78689194 C166.33319704 266.64906726 171.35692406 280.49192388 176.3972168 294.32910156 C176.80022003 295.4355603 177.20322327 296.54201904 177.61843872 297.68200684 C178.02053558 298.78596802 178.42263245 299.8899292 178.83691406 301.02734375 C179.6513057 303.26333911 180.4656774 305.49934173 181.2800293 307.73535156 C181.68372238 308.84372375 182.08741547 309.95209595 182.50334167 311.09405518 C185.59886104 319.596414 188.68415821 328.10245088 191.7644043 336.61035156 C191.99357985 337.243353 192.22275539 337.87635445 192.45887566 338.52853775 C194.9517307 345.41455759 197.44301565 352.30114458 199.93359375 359.18798828 C203.69486996 369.58666757 207.45914145 379.98405865 211.26049805 390.36816406 C211.70001297 391.5701796 211.70001297 391.5701796 212.14840698 392.79647827 C213.45338328 396.3652723 214.76101364 399.93303056 216.07495117 403.49853516 C216.72367187 405.27091553 216.72367187 405.27091553 217.38549805 407.07910156 C217.75457275 408.08199219 218.12364746 409.08488281 218.50390625 410.11816406 C219.2722168 412.45410156 219.2722168 412.45410156 219.2722168 414.45410156 C219.9322168 414.45410156 220.5922168 414.45410156 221.2722168 414.45410156 C221.39415405 413.31859863 221.39415405 413.31859863 221.51855469 412.16015625 C222.57878502 406.94658434 224.46293291 402.13030477 226.33081055 397.15722656 C226.74629654 396.03725281 227.16178253 394.91727905 227.58985901 393.7633667 C228.7222327 390.71239949 229.85904148 387.66312675 230.99737549 384.61437988 C232.93469832 379.41908127 234.85783781 374.21849838 236.78285599 369.01863098 C237.27485655 367.68977648 237.76704279 366.36099071 238.25941086 365.03227234 C243.0131583 352.20239924 247.6608158 339.33576982 252.2722168 326.45410156 C258.5926613 308.81382649 265.02435664 291.21726911 271.5222168 273.64160156 C278.86554122 253.77859972 286.10889151 233.8824839 293.2722168 213.95410156 C300.3531293 194.25531156 307.51193221 174.58771264 314.7722168 154.95410156 C322.77531307 133.30990181 330.65033707 111.62253432 338.45925713 89.90778446 C345.66310557 69.876941 352.94244095 49.87494455 360.28442383 29.89428711 C361.02289195 27.88180144 361.76102489 25.86919273 362.4987793 23.85644531 C362.84167999 22.92108444 363.18458069 21.98572357 363.53787231 21.02201843 C365.67242903 15.17241439 367.71030004 9.30618808 369.59399414 3.37036133 C370.2722168 1.45410156 370.2722168 1.45410156 371.2722168 0.45410156 C373.60569097 0.29542811 375.91110385 0.20137097 378.24780273 0.15014648 C378.97809189 0.13072495 379.70838104 0.11130341 380.46080017 0.09129333 C387.2392653 -0.07819824 394.01934844 -0.17440172 400.79944992 -0.24977589 C405.35066463 -0.30098737 409.89881234 -0.37500408 414.44848633 -0.50610352 C418.85258737 -0.63250844 423.25393275 -0.6982786 427.65973663 -0.72336388 C429.32960664 -0.7428446 430.99938239 -0.78297037 432.66820526 -0.84522438 C440.95044827 -1.13952109 447.37467705 -1.07461809 453.8596077 4.55106831 C455.96188352 6.58281247 457.94377029 8.68647226 459.87056732 10.88479042 C462.1682327 13.45729656 464.66642288 15.808791 467.1472168 18.20410156 C470.67427841 21.77176244 474.10406012 25.37871545 477.35424805 29.20019531 C478.85186943 30.9601292 480.37549422 32.6979447 481.90893555 34.42675781 C525.10603516 83.36328178 554.3341843 148.18560819 561.99584961 213.12158203 C562.17826656 214.66116817 562.37269366 216.19938473 562.57983398 217.73583984 C567.53302291 254.79100559 565.25734023 294.03502644 557.2722168 330.45410156 C557.01384033 331.68821777 557.01384033 331.68821777 556.75024414 332.94726562 C541.91828778 403.47780602 501.15620264 473.2604365 445.2722168 519.45410156 C444.47122559 520.12578369 444.47122559 520.12578369 443.65405273 520.81103516 C414.27868205 545.40564669 381.10205589 565.71499839 345.2722168 579.45410156 C344.35359863 579.81310547 343.43498047 580.17210937 342.48852539 580.54199219 C326.0620795 586.9160287 309.45626285 591.6013761 292.2722168 595.45410156 C290.89718994 595.76903564 290.89718994 595.76903564 289.49438477 596.09033203 C250.90427539 604.77915582 209.31971189 605.0288488 170.2722168 599.45410156 C169.2930127 599.3202002 168.31380859 599.18629883 167.30493164 599.04833984 C89.47886083 588.10467044 8.53016086 545.2018238 -40.70043945 482.97363281 C-42.54512835 480.68110037 -44.47040219 478.54087645 -46.4777832 476.39160156 C-72.74526843 447.04915279 -91.65035721 408.97893409 -104.74487305 372.18896484 C-105.39529782 370.37921366 -106.06209993 368.57525744 -106.74584961 366.77783203 C-109.43622663 359.65989263 -111.4189235 352.46664439 -113.2277832 345.07910156 C-113.53039062 343.84667725 -113.83299805 342.61425293 -114.14477539 341.34448242 C-124.7220236 297.677906 -126.9656384 252.98419198 -120.7277832 208.45410156 C-120.53240904 206.90723435 -120.33709009 205.36036016 -120.1418457 203.81347656 C-111.23453886 138.94732441 -79.47391548 78.26351501 -36.7277832 29.45410156 C-35.99043945 28.60332031 -35.2530957 27.75253906 -34.4934082 26.87597656 C-29.83971529 21.59246055 -24.94215862 16.5686434 -19.9777832 11.57910156 C-19.02005005 10.61435913 -19.02005005 10.61435913 -18.04296875 9.63012695 C-17.42848877 9.0177417 -16.81400879 8.40535645 -16.1809082 7.77441406 C-15.63595703 7.23059082 -15.09100586 6.68676758 -14.52954102 6.12646484 C-13.93496094 5.57458496 -13.34038086 5.02270508 -12.7277832 4.45410156 C-12.02500748 3.76897491 -11.32223175 3.08384827 -10.59815979 2.37796021 C-7.00820421 -0.02819343 -4.17117419 -0.08432341 0 0 Z " fill="#FEFEFE" transform="translate(279.727783203125,241.5458984375)"/>
<path d="M0 0 C3.17930393 3.6079941 4.52421977 7.75762638 6.0546875 12.23046875 C6.34784348 13.06691925 6.64099945 13.90336975 6.94303894 14.76516724 C7.58507148 16.59787547 8.22413615 18.43162541 8.86062622 20.26626587 C10.63594067 25.37888733 12.43712965 30.48237175 14.23828125 35.5859375 C14.62179245 36.67350845 15.00530365 37.76107941 15.4004364 38.88160706 C19.82943773 51.40469293 24.44746578 63.85707052 29.0625 76.3125 C36.75911619 97.10605466 44.33068277 117.94084571 51.8125 138.8125 C52.30532827 140.18716434 52.79815664 141.56182865 53.29098511 142.93649292 C53.78049981 144.30198069 54.27001194 145.66746937 54.75952148 147.03295898 C55.48141866 149.04668341 56.20332525 151.06040445 56.92526436 153.07411385 C57.39824879 154.39342273 57.87120402 155.71274208 58.34412956 157.03207207 C63.1930467 170.55764711 68.09517461 184.06348076 73.01611328 197.56298828 C73.6553157 199.31671637 74.29447545 201.07046 74.93359375 202.82421875 C75.25390564 203.70313782 75.57421753 204.58205688 75.90423584 205.48760986 C78.58472941 212.84814215 81.24898738 220.21449305 83.91015625 227.58203125 C92.73924444 252.02069209 101.61600774 276.43952081 110.625 300.8125 C118.14176481 321.15151132 125.53167171 341.53223895 132.82763672 361.95141602 C133.60901227 364.13819689 134.3904252 366.32496441 135.171875 368.51171875 C135.56114166 369.60104202 135.95040833 370.6903653 136.35147095 371.81269836 C141.11669319 385.13751822 145.9318339 398.44425192 150.75 411.75 C151.18935883 412.96413574 151.62871765 414.17827148 152.08139038 415.42919922 C156.57783313 427.8531722 161.08988948 440.27094163 165.66015625 452.66796875 C166.01864655 453.64172455 166.37713684 454.61548035 166.74649048 455.6187439 C168.40320446 460.11829556 170.06440219 464.61606648 171.73535156 469.11035156 C172.30943104 470.66594691 172.88333596 472.22160668 173.45703125 473.77734375 C173.71839371 474.47433884 173.97975616 475.17133392 174.2490387 475.88945007 C175.2980602 478.74718552 176 480.9275394 176 484 C169.454394 484.16495983 163.42972275 483.6401947 157 482.4375 C156.05431152 482.26114014 155.10862305 482.08478027 154.13427734 481.90307617 C112.72118102 473.82024208 72.59198888 456.65188126 39 431 C38.4234668 430.56478027 37.84693359 430.12956055 37.25292969 429.68115234 C29.70493851 423.96565712 22.55925152 417.94696923 15.65625 411.46875 C13.52450377 409.48747998 11.36209906 407.60792973 9.125 405.75 C-1.3294384 396.64311915 -10.36413732 385.80888779 -18.67773438 374.75488281 C-20.00699452 372.99071703 -21.35447286 371.24155427 -22.703125 369.4921875 C-33.4590636 355.36828601 -42.53343999 340.01933095 -50.07763672 323.95556641 C-50.68674277 322.6641584 -51.3054078 321.37721076 -51.93408203 320.09521484 C-62.10815471 299.34220974 -70.04029136 276.01542391 -73.64697266 253.17480469 C-74.00922302 250.94318214 -74.42480798 248.72718639 -74.85546875 246.5078125 C-81.15862738 213.37285934 -81.14006577 174.9451394 -74 142 C-73.75862305 140.86095215 -73.51724609 139.7219043 -73.26855469 138.54833984 C-64.49830382 98.24379704 -47.79716533 60.02410692 -23 27 C-22.53207031 26.37512695 -22.06414062 25.75025391 -21.58203125 25.10644531 C-14.92470698 16.28129486 -7.82327387 7.82327387 0 0 Z " fill="#000000" transform="translate(290,302)"/>
<path d="M0 0 C25.73651237 10.53126253 46.70205624 58.90283274 57.0625 83 C64.82991838 101.68432217 71.10984581 121.13749741 75 141 C75.19464844 141.93005859 75.38929688 142.86011719 75.58984375 143.81835938 C79.00975102 160.68319621 79.37168936 177.34725347 79.375 194.5 C79.37690338 195.56278168 79.37880676 196.62556335 79.38076782 197.72055054 C79.37702312 216.20241666 78.21622135 234.3202521 74.75 252.5 C74.53384033 253.64235107 74.31768066 254.78470215 74.0949707 255.96166992 C72.08042096 266.22115053 69.37214775 276.11005887 66 286 C65.70754395 286.86898926 65.41508789 287.73797852 65.11376953 288.63330078 C55.39225594 317.24203242 42.16614901 343.80687796 24 368 C23.29810547 368.93730957 23.29810547 368.93730957 22.58203125 369.89355469 C16.91662188 377.40379273 10.9056778 384.48574703 4.46875 391.34375 C2.48747998 393.47549623 0.60792973 395.63790094 -1.25 397.875 C-10.35688085 408.3294384 -21.19111221 417.36413732 -32.24511719 425.67773438 C-34.00928297 427.00699452 -35.75844573 428.35447286 -37.5078125 429.703125 C-47.50061967 437.31202719 -58.10810031 443.76473283 -69 450 C-70.01344482 450.58225342 -70.01344482 450.58225342 -71.04736328 451.17626953 C-96.10987321 465.43586206 -125.5816874 476.20349826 -154.08300781 480.68994141 C-156.82079496 481.13275721 -159.53178299 481.70120009 -162.25 482.25 C-166.56453258 483.02702482 -170.62213672 483.16520239 -175 483 C-174.3294381 477.51353379 -172.5867302 472.64016662 -170.703125 467.48046875 C-170.19208221 466.06227592 -170.19208221 466.06227592 -169.67071533 464.61543274 C-168.53572387 461.4708636 -167.39300234 458.32916534 -166.25 455.1875 C-165.44179199 452.95452309 -164.63385483 450.72144813 -163.82617188 448.48828125 C-157.34385013 430.59219917 -150.75963973 412.73363905 -144.16223145 394.87973022 C-138.02888534 378.28103081 -131.97006404 361.65810372 -126 345 C-119.16010338 325.91482661 -112.18537757 306.88213931 -105.15673828 287.86572266 C-99.02527393 271.27167943 -92.96837031 254.65337775 -87 238 C-80.16010338 218.91482661 -73.18537757 199.88213931 -66.15673828 180.86572266 C-60.02527349 164.27167823 -53.96847034 147.65334258 -48 131 C-41.14238716 111.86671842 -34.15497851 92.78382657 -27.10949707 73.71896362 C-20.00975848 54.50536584 -12.99782095 35.26171788 -6.06420898 15.98754883 C-5.7272551 15.05203186 -5.39030121 14.11651489 -5.0431366 13.15264893 C-4.41732149 11.41465955 -3.79259057 9.67627926 -3.16914368 7.93743896 C-1.11174345 2.2234869 -1.11174345 2.2234869 0 0 Z " fill="#000000" transform="translate(709,303)"/>
<path d="M0 0 C0.15482285 6.80043503 -0.22706082 13.33131284 -1.1875 20.0625 C-1.31987061 21.00367676 -1.45224121 21.94485352 -1.58862305 22.91455078 C-4.89935337 45.54500051 -9.40561364 68.79093998 -17.08203125 90.37890625 C-18.09423872 93.26908161 -18.95160738 96.18634122 -19.8125 99.125 C-23.12292254 110.00210263 -27.46413603 120.58168745 -32 131 C-32.26095459 131.60440918 -32.52190918 132.20881836 -32.79077148 132.83154297 C-39.91429842 149.15637948 -48.96295716 164.78495475 -61 178 C-61.76570312 178.84691406 -62.53140625 179.69382813 -63.3203125 180.56640625 C-79.23785049 197.32844384 -97.39716303 204.25665787 -120 207.1875 C-121.32170038 207.36590196 -122.64331573 207.54493509 -123.96484375 207.72460938 C-133.50811414 209 -133.50811414 209 -137 209 C-138.40234375 207.671875 -138.40234375 207.671875 -139.9375 205.75 C-143.16582598 201.89528241 -146.57179515 198.30156968 -150.125 194.75 C-150.62765381 194.24307617 -151.13030762 193.73615234 -151.64819336 193.21386719 C-153.07845825 191.78854154 -154.53876033 190.39355282 -156 189 C-156.73421677 188.29486267 -157.46843353 187.58972534 -158.22489929 186.86322021 C-161.77873902 184.47714968 -164.00794019 184.48353755 -168.26879883 184.45410156 C-168.98153961 184.44376389 -169.6942804 184.43342621 -170.42861938 184.42277527 C-172.77165555 184.39340593 -175.11382569 184.39184943 -177.45703125 184.390625 C-179.08657981 184.37563928 -180.7161132 184.3589113 -182.34562683 184.34051514 C-186.62487495 184.29687294 -190.9039182 184.27684961 -195.18334961 184.26177979 C-199.55399677 184.24219731 -203.92442304 184.20022861 -208.29492188 184.16015625 C-216.8632234 184.08488811 -225.4314381 184.03457626 -234 184 C-234.15703651 163.32486822 -234.15703651 163.32486822 -233.1875 153.75 C-233.09549316 152.82364746 -233.00348633 151.89729492 -232.90869141 150.94287109 C-229.00031236 113.76481922 -212.82733684 80.75111639 -187 54 C-186.22785156 53.17628906 -185.45570313 52.35257813 -184.66015625 51.50390625 C-179.56497559 46.19381463 -174.18608275 41.97043707 -168 38 C-166.97648438 37.34 -165.95296875 36.68 -164.8984375 36 C-135.68357515 17.59254496 -100.86642554 7.87931638 -66.8125 3.4375 C-64.92315551 3.18636014 -63.0338321 2.93506167 -61.14453125 2.68359375 C-59.80950562 2.50824097 -59.80950562 2.50824097 -58.44750977 2.3293457 C-56.40494926 2.05449143 -54.36597425 1.75315781 -52.328125 1.4453125 C-48.53586086 0.93789688 -44.75556657 0.64270896 -40.9375 0.4375 C-40.1539917 0.3950415 -39.3704834 0.35258301 -38.56323242 0.30883789 C-25.72561033 -0.29336109 -12.84786649 -0.08313702 0 0 Z " fill="#5BB946" transform="translate(889,58)"/>
<path d="M0 0 C-1.31693041 3.95079122 -3.85383566 5.46244439 -7.0625 7.875 C-8.34608587 8.86063433 -9.62859656 9.84767008 -10.91015625 10.8359375 C-11.58191895 11.3525293 -12.25368164 11.86912109 -12.94580078 12.40136719 C-16.34277917 15.04498669 -19.66934873 17.77363214 -23 20.5 C-27.93881617 24.53283395 -32.90820934 28.51812176 -37.9375 32.4375 C-43.94295251 37.12065104 -49.81850309 41.95081655 -55.68334961 46.80834961 C-60.62534335 50.89251734 -65.63225604 54.87891521 -70.69140625 58.81640625 C-76.10281723 63.04445629 -81.38718856 67.42078342 -86.67480469 71.80200195 C-91.14818145 75.49989197 -95.66818371 79.12508149 -100.25 82.6875 C-105.43469233 86.71929897 -110.47126459 90.89560634 -115.46459961 95.16137695 C-119.05023866 98.21779869 -122.70517929 101.14448708 -126.4453125 104.0078125 C-129.90198002 106.70337892 -133.29185612 109.47818464 -136.6875 112.25 C-141.73124609 116.36512896 -146.80270568 120.43659302 -151.9375 124.4375 C-157.94299398 129.12059644 -163.81850483 133.95081799 -169.68334961 138.80834961 C-174.07401898 142.43689126 -178.50510105 146.00158717 -183 149.5 C-189.07265552 154.22719049 -195.01643009 159.10066737 -200.94726562 164.00415039 C-205.53256189 167.79458492 -210.12422327 171.57311928 -214.8046875 175.24609375 C-216.33982407 176.47256407 -217.84310815 177.73949385 -219.3203125 179.03515625 C-220.08085938 179.68355469 -220.84140625 180.33195313 -221.625 181 C-222.27726563 181.5775 -222.92953125 182.155 -223.6015625 182.75 C-227.14764485 184.5981211 -230.03153469 184.19967121 -234 184 C-234.98623833 136.55097808 -223.03607674 91.71930912 -189.62109375 56.71484375 C-188.75613281 55.81894531 -187.89117188 54.92304687 -187 54 C-186.22785156 53.17628906 -185.45570313 52.35257813 -184.66015625 51.50390625 C-179.56497559 46.19381463 -174.18608275 41.97043707 -168 38 C-166.97648438 37.34 -165.95296875 36.68 -164.8984375 36 C-135.68357515 17.59254496 -100.86642554 7.87931638 -66.8125 3.4375 C-64.92315551 3.18636014 -63.0338321 2.93506167 -61.14453125 2.68359375 C-59.80950562 2.50824097 -59.80950562 2.50824097 -58.44750977 2.3293457 C-56.40494926 2.05449143 -54.36597425 1.75315781 -52.328125 1.4453125 C-48.53586086 0.93789688 -44.75556657 0.64270896 -40.9375 0.4375 C-40.1539917 0.3950415 -39.3704834 0.35258301 -38.56323242 0.30883789 C-25.72561033 -0.29336109 -12.84786649 -0.08313702 0 0 Z " fill="#54AA40" transform="translate(889,58)"/>
</svg>
