<?xml version="1.0" encoding="UTF-8"?>
<svg version="1.1" xmlns="http://www.w3.org/2000/svg" width="1000" height="1000">
<path d="M0 0 C330 0 660 0 1000 0 C1000 330 1000 660 1000 1000 C670 1000 340 1000 0 1000 C0 670 0 340 0 0 Z " fill="#000000" transform="translate(0,0)"/>
<path d="M0 0 C1.14248199 -0.0010952 1.14248199 -0.0010952 2.30804443 -0.00221252 C4.80848112 0.00125204 7.30702049 0.04005579 9.80712891 0.0793457 C11.54732241 0.08867795 13.28752911 0.09579212 15.02774048 0.1007843 C19.59503824 0.11982192 24.16153362 0.1688942 28.72851562 0.2243042 C33.39393257 0.27556694 38.0594799 0.29831329 42.72509766 0.32348633 C51.86998032 0.37701657 61.01426899 0.46228967 70.15869141 0.56762695 C70.41088943 1.33829498 70.66308746 2.10896301 70.92292786 2.90298462 C76.49919742 19.89875952 82.31203434 36.76869901 88.57128906 53.52758789 C90.856283 59.64832615 93.12305952 65.77581252 95.38916016 71.90356445 C95.62500195 72.54092278 95.86084373 73.1782811 96.10383224 73.83495331 C101.47995385 88.37001293 106.71375343 102.95535909 111.93536758 117.5464859 C119.4075214 138.42548416 126.96143093 159.2702265 134.65869141 180.06762695 C142.20745215 200.46598199 149.63105148 220.90603302 156.97119141 241.38012695 C157.33808704 242.40347012 157.33808704 242.40347012 157.71239471 243.44748688 C158.44827058 245.50005412 159.18410424 247.55263649 159.91992188 249.60522461 C160.64139859 251.61780061 161.36288248 253.63037403 162.08439636 255.64293671 C162.55719134 256.96173914 163.02995963 258.28055114 163.50270081 259.59937286 C168.34665466 273.11109637 173.24393177 286.60303593 178.15942383 300.08886719 C178.79463368 301.83177351 179.42980578 303.57469358 180.06494141 305.31762695 C180.38380814 306.19262344 180.70267487 307.06761993 181.03120422 307.96913147 C183.80338437 315.58134669 186.5604022 323.19901283 189.31494141 330.81762695 C189.76262375 332.05570099 190.21030609 333.29377502 190.67155457 334.56936646 C192.49347398 339.6080717 194.31531914 344.64680371 196.1366272 349.68572998 C200.59413805 362.01534372 205.05931852 374.34158357 209.60791016 386.63793945 C210.11167175 388.00020157 210.11167175 388.00020157 210.62561035 389.38998413 C212.1612149 393.53900891 213.70160054 397.68617935 215.24902344 401.83081055 C215.77753692 403.25348805 216.306022 404.67617611 216.83447266 406.09887695 C217.28733643 407.31124023 217.7402002 408.52360352 218.20678711 409.77270508 C219.15869141 412.56762695 219.15869141 412.56762695 219.15869141 414.56762695 C219.81869141 414.56762695 220.47869141 414.56762695 221.15869141 414.56762695 C221.32590195 413.91029068 221.49311249 413.25295441 221.66539001 412.57569885 C223.52821467 405.47838106 225.83747196 398.64970731 228.41259766 391.7824707 C228.82525375 390.66957169 229.23790985 389.55667267 229.66307068 388.41004944 C230.54971531 386.01971203 231.43836896 383.63011903 232.32885742 381.24121094 C234.47716426 375.47660641 236.61268083 369.70728104 238.74717331 363.93754959 C239.23367754 362.62252907 239.7203345 361.30756504 240.20714188 359.99265671 C244.93771254 347.21287782 249.56503803 334.39720497 254.15869141 321.56762695 C260.47942971 303.92745529 266.91082997 286.33079798 273.40869141 268.75512695 C280.75201541 248.89212624 287.9954518 228.99603956 295.15869141 209.06762695 C302.75174781 187.9434472 310.44636315 166.85968643 318.23046875 145.80493164 C324.65696893 128.41782421 330.98982448 110.99989705 337.2399292 93.54864502 C341.70363132 81.08906318 346.21857181 68.6497029 350.80712891 56.2355957 C351.16558773 55.26537161 351.16558773 55.26537161 351.53128815 54.27554703 C354.09932968 47.32537834 356.6737131 40.37762292 359.25634766 33.43286133 C360.10666977 31.13796231 360.95693307 28.8430415 361.80712891 26.5480957 C362.18864105 25.52725388 362.5701532 24.50641205 362.96322632 23.45463562 C365.3276569 17.06169346 367.41161774 10.6263077 369.33901978 4.08784485 C370.15869141 1.56762695 370.15869141 1.56762695 371.15869141 0.56762695 C373.49216558 0.4089535 375.79757846 0.31489636 378.13427734 0.26367188 C378.8645665 0.24425034 379.59485565 0.2248288 380.34727478 0.20481873 C387.12573991 0.03532715 393.90582305 -0.06087633 400.68592453 -0.1362505 C405.23713924 -0.18746198 409.78528695 -0.26147869 414.33496094 -0.39257812 C418.73906198 -0.51898305 423.14040736 -0.58475321 427.54621124 -0.60983849 C429.21608125 -0.6293192 430.885857 -0.66944498 432.55467987 -0.73169899 C440.83692288 -1.0259957 447.26115166 -0.9610927 453.74608231 4.6645937 C455.84835296 6.69633287 457.83023584 8.79998647 459.75702667 10.99830055 C462.05469809 13.57081047 464.55288915 15.92231593 467.03369141 18.31762695 C471.26204182 22.59471915 475.27531026 26.97817651 479.15869141 31.56762695 C479.94373047 32.46352539 480.72876953 33.35942383 481.53759766 34.2824707 C510.40307396 67.42809299 531.56278543 106.25304286 546.15869141 147.56762695 C546.59737549 148.77926514 546.59737549 148.77926514 547.04492188 150.01538086 C551.17285779 161.42619251 554.11314503 172.96075884 556.58837891 184.83569336 C556.95561035 186.59482 557.33004953 188.35246524 557.71337891 190.1081543 C565.98130863 228.01032125 566.90527594 268.22584197 561.15869141 306.56762695 C560.9764502 307.79078613 560.79420898 309.01394531 560.60644531 310.27416992 C558.35618088 324.98454519 555.6964696 339.3893907 551.15869141 353.56762695 C550.65426514 355.18459473 550.65426514 355.18459473 550.13964844 356.83422852 C535.77506661 402.66968436 514.00171448 445.35902814 482.15869141 481.56762695 C481.52447266 482.30110352 480.89025391 483.03458008 480.23681641 483.7902832 C478.55717608 485.72803339 476.86068961 487.64950199 475.15869141 489.56762695 C474.49740234 490.32172852 473.83611328 491.07583008 473.15478516 491.8527832 C468.93140691 496.62013861 464.58703366 501.2408468 460.09619141 505.75512695 C459.62608643 506.22982422 459.15598145 506.70452148 458.67163086 507.19360352 C454.66800328 511.18005993 450.44416216 514.88817206 446.15869141 518.56762695 C445.52890381 519.10943604 444.89911621 519.65124512 444.25024414 520.20947266 C401.18828222 556.96941248 347.10689788 585.32510502 291.15869141 595.56762695 C289.99112305 595.78257812 288.82355469 595.9975293 287.62060547 596.21899414 C230.19107709 606.57078108 170.82391905 605.4443055 115.15869141 586.56762695 C114.18480469 586.23891602 113.21091797 585.91020508 112.20751953 585.5715332 C70.0344584 571.1889652 30.71024847 550.07396082 -2.84130859 520.56762695 C-3.57478516 519.9334082 -4.30826172 519.29918945 -5.06396484 518.64575195 C-7.00171503 516.96611163 -8.92318363 515.26962516 -10.84130859 513.56762695 C-11.59541016 512.90633789 -12.34951172 512.24504883 -13.12646484 511.5637207 C-17.89382025 507.34034246 -22.51452844 502.99596921 -27.02880859 498.50512695 C-27.74085449 497.79996948 -27.74085449 497.79996948 -28.46728516 497.08056641 C-32.45374157 493.07693883 -36.1618537 488.85309771 -39.84130859 484.56762695 C-40.38311768 483.93783936 -40.92492676 483.30805176 -41.4831543 482.65917969 C-86.55678524 429.85825051 -111.93566839 366.78625741 -121.84130859 298.56762695 C-122.04481934 297.20420166 -122.04481934 297.20420166 -122.25244141 295.81323242 C-131.4243394 232.16542759 -116.94479509 163.61584598 -88.84130859 106.56762695 C-88.38997559 105.65110352 -87.93864258 104.73458008 -87.47363281 103.7902832 C-75.20532783 79.13872696 -60.02919362 56.24901234 -41.84130859 35.56762695 C-40.88998047 34.46741211 -40.88998047 34.46741211 -39.91943359 33.3449707 C-38.23979327 31.40722051 -36.5433068 29.48575191 -34.84130859 27.56762695 C-33.849375 26.43647461 -33.849375 26.43647461 -32.83740234 25.2824707 C-28.57476363 20.47079802 -24.18658652 15.81114989 -19.65380859 11.25512695 C-18.9235144 10.51794434 -18.9235144 10.51794434 -18.1784668 9.76586914 C-17.7023999 9.29181641 -17.22633301 8.81776367 -16.73583984 8.3293457 C-16.32180908 7.91644287 -15.90777832 7.50354004 -15.48120117 7.078125 C-14.94003662 6.57966064 -14.39887207 6.08119629 -13.84130859 5.56762695 C-12.9792128 4.72318024 -12.117117 3.87873352 -11.22889709 3.00869751 C-7.71358247 0.10705955 -4.44035643 -0.11277637 0 0 Z " fill="#FEFEFE" transform="translate(279.84130859375,241.432373046875)"/>
<path d="M0 0 C0.66 0 1.32 0 2 0 C7.82147379 14.62213676 13.16837853 29.40590775 18.48109818 44.21902084 C20.43395926 49.66091835 22.39318082 55.10053286 24.35130882 60.54053688 C24.85225639 61.93234176 25.35312208 63.32417612 25.85390663 64.71603966 C30.89179655 78.71805615 35.97008155 92.70522261 41.0625 106.6875 C46.11507273 120.56154628 51.16277491 134.43722985 56.1796875 148.32421875 C57.93220437 153.17451072 59.68475193 158.02479158 61.4375 162.875 C62.08948364 164.67917892 62.08948364 164.67917892 62.75463867 166.51980591 C69.71516561 185.77233066 76.77861763 204.9853735 83.87960815 224.1864624 C90.80012147 242.91078176 97.55942147 261.68832174 104.24304199 280.49835205 C110.48023827 298.04394683 116.84831113 315.53682096 123.3125 333 C130.92418499 353.56504404 138.41302225 374.17039398 145.8125 394.8125 C146.17533962 395.82465891 146.17533962 395.82465891 146.54550934 396.85726547 C147.27141782 398.88229055 147.9972862 400.90732999 148.72314453 402.93237305 C149.67215862 405.57993039 150.62122429 408.22746923 151.5703125 410.875 C151.80167027 411.52047602 152.03302803 412.16595203 152.27139664 412.83098793 C156.87434811 425.67117906 161.51957621 438.49579703 166.1875 451.3125 C166.51424713 452.20965729 166.84099426 453.10681458 167.17764282 454.03115845 C167.79960534 455.7384616 168.42173434 457.44570412 169.04405212 459.15287781 C169.61311777 460.71431334 170.18171485 462.27591975 170.74977112 463.83772278 C171.92227385 467.05906787 173.10347314 470.27594126 174.30712891 473.48583984 C174.67628418 474.47406738 175.04543945 475.46229492 175.42578125 476.48046875 C175.890448 477.70672974 175.890448 477.70672974 176.36450195 478.95776367 C177 481 177 481 177 484 C168.8804224 484.41662599 161.42549995 483.19006291 153.5 481.5 C151.59891479 481.0973291 151.59891479 481.0973291 149.65942383 480.68652344 C108.5408593 471.77947469 69.03481156 454.24742505 36 428 C35.11030518 427.30318115 35.11030518 427.30318115 34.20263672 426.59228516 C14.78784253 411.36277503 -2.73638786 394.47272924 -17.64550781 374.78710938 C-18.54349617 373.60230859 -19.44645136 372.42125483 -20.35449219 371.24414062 C-28.48499478 360.69614518 -35.38720979 349.55071502 -42 338 C-42.40460449 337.30213379 -42.80920898 336.60426758 -43.22607422 335.88525391 C-80.07758017 271.81549281 -86.71004798 192.32330295 -68.10498047 121.59765625 C-58.31437563 86.02564418 -42.02721727 51.94131133 -19 23 C-18.26136719 22.06929688 -17.52273438 21.13859375 -16.76171875 20.1796875 C-12.27224044 14.61242425 -7.5965934 9.25498416 -2.75 3.99609375 C-0.95218021 2.11549325 -0.95218021 2.11549325 0 0 Z " fill="#010000" transform="translate(289,302)"/>
<path d="M0 0 C2 0 2 0 3.49584961 1.47973633 C4.06311768 2.15286865 4.63038574 2.82600098 5.21484375 3.51953125 C6.15046143 4.62095459 6.15046143 4.62095459 7.10498047 5.74462891 C7.73033691 6.48890137 8.35569336 7.23317383 9 8 C10.08455947 9.25397194 11.16919205 10.50788066 12.25390625 11.76171875 C21.44110818 22.58575269 29.42139257 34.0030856 37 46 C37.46390137 46.73186523 37.92780273 47.46373047 38.40576172 48.21777344 C78.25154936 111.73918201 88.85843684 190.31119875 73 263 C61.84803218 310.61331601 39.21539984 354.44942093 6.22265625 390.5546875 C4.79450584 392.12590394 3.38391432 393.71336236 1.99609375 395.3203125 C-8.98580986 407.94845973 -21.5691077 419.05413353 -35 429 C-35.61858887 429.46438477 -36.23717773 429.92876953 -36.87451172 430.40722656 C-74.57081923 458.55811715 -127.85178571 485 -176 485 C-173.89557303 477.67099493 -171.45953331 470.5035805 -168.8515625 463.33984375 C-168.44719971 462.22274521 -168.04283691 461.10564667 -167.6262207 459.95469666 C-166.52554634 456.91653545 -165.42228217 453.87933158 -164.31763458 450.84261322 C-163.61765996 448.917311 -162.91883827 446.99159417 -162.22039795 445.06573486 C-154.9959 425.14557469 -147.68282218 405.25883449 -140.33425903 385.38409424 C-133.13314643 365.89924827 -126.07010417 346.36754129 -119.0625 326.8125 C-112.80123918 309.34016409 -106.52758537 291.87442785 -100.0765686 274.4710083 C-94.55507329 259.57177525 -89.14979415 244.63121455 -83.75 229.6875 C-77.21621945 211.60661024 -70.64628006 193.53987644 -64 175.5 C-57.43820271 157.68880545 -50.95087493 139.85166048 -44.5 122 C-37.22526141 101.8690924 -29.89187169 81.76098708 -22.49658203 61.67407227 C-14.93734388 41.13799315 -7.46233175 20.57145891 0 0 Z " fill="#010000" transform="translate(709,302)"/>
<path d="M0 0 C0.38274673 9.19503442 -1.06758858 17.91818331 -2.625 26.9375 C-2.75905243 27.72735291 -2.89310486 28.51720581 -3.03121948 29.33099365 C-6.56631576 50.12145613 -10.78762075 70.82745169 -17 91 C-17.27537598 91.8971875 -17.55075195 92.794375 -17.83447266 93.71875 C-30.24507207 133.62576658 -48.95215476 177.56669114 -87.2265625 198.7890625 C-94.16165655 202.21442526 -100.99476595 204.42774246 -108.63476562 205.625 C-110.44114626 205.91139561 -112.24398334 206.22023053 -114.04492188 206.5390625 C-117.50290901 207.13906027 -120.96637933 207.66929667 -124.4375 208.1875 C-126.12685669 208.48563599 -126.12685669 208.48563599 -127.8503418 208.78979492 C-135.79445005 209.86011778 -135.79445005 209.86011778 -139.125 207.48388672 C-140.92705347 205.41301044 -142.45514593 203.26714309 -144 201 C-145.01675802 199.88571653 -146.05998166 198.79477988 -147.1328125 197.734375 C-147.62910156 197.23679688 -148.12539063 196.73921875 -148.63671875 196.2265625 C-149.12785156 195.73929688 -149.61898437 195.25203125 -150.125 194.75 C-150.62386719 194.24726563 -151.12273437 193.74453125 -151.63671875 193.2265625 C-153.07041114 191.79661343 -154.53464151 190.39748084 -156 189 C-156.73421677 188.29486267 -157.46843353 187.58972534 -158.22489929 186.86322021 C-161.77873902 184.47714968 -164.00794019 184.48353755 -168.26879883 184.45410156 C-168.98153961 184.44376389 -169.6942804 184.43342621 -170.42861938 184.42277527 C-172.77165555 184.39340593 -175.11382569 184.39184943 -177.45703125 184.390625 C-179.08657981 184.37563928 -180.7161132 184.3589113 -182.34562683 184.34051514 C-186.62487495 184.29687294 -190.9039182 184.27684961 -195.18334961 184.26177979 C-199.55399677 184.24219731 -203.92442304 184.20022861 -208.29492188 184.16015625 C-216.8632234 184.08488811 -225.4314381 184.03457626 -234 184 C-234.03681151 179.89846175 -234.05868456 175.79696696 -234.078125 171.6953125 C-234.08859863 170.54844971 -234.09907227 169.40158691 -234.10986328 168.2199707 C-234.14748541 157.59924446 -233.02498672 147.41358786 -231 137 C-230.86609863 136.30293945 -230.73219727 135.60587891 -230.59423828 134.88769531 C-224.17919969 102.96024262 -207.69678659 74.92878657 -185 52 C-184.39784668 51.3824585 -183.79569336 50.76491699 -183.17529297 50.12866211 C-178.48110215 45.35340695 -173.6427132 41.61861737 -168 38 C-167.12239014 37.43708252 -167.12239014 37.43708252 -166.22705078 36.86279297 C-117.35783048 5.90271192 -56.66114507 -1.1030172 0 0 Z " fill="#D78029" transform="translate(889,58)"/>
<path d="M0 0 C0 0.66 0 1.32 0 2 C-2.04793015 3.7449819 -4.10576629 5.38070317 -6.25 7 C-7.54803759 7.99849045 -8.84489374 8.99851847 -10.140625 10 C-10.79353516 10.50402344 -11.44644531 11.00804688 -12.11914062 11.52734375 C-14.79897458 13.62557304 -17.39793276 15.80582438 -20 18 C-24.2471202 21.57028829 -28.55931898 25.03124508 -32.9375 28.4375 C-38.22535449 32.55343583 -43.36900803 36.80811105 -48.46337891 41.16040039 C-52.04948391 44.21707585 -55.7047648 47.14416976 -59.4453125 50.0078125 C-62.90198002 52.70337892 -66.29185612 55.47818464 -69.6875 58.25 C-74.7312512 62.36513313 -79.80286246 66.43638733 -84.9375 70.4375 C-91.61899183 75.65153011 -98.15247869 81.03705466 -104.68359375 86.4375 C-115.45283738 95.33923066 -126.33714117 104.09958486 -137.265625 112.8046875 C-141.76059428 116.39173252 -146.23497986 120.00249554 -150.69262695 123.63574219 C-156.40157139 128.28852852 -162.12879001 132.90972808 -167.9375 137.4375 C-174.03360088 142.19238838 -180.00475987 147.09029965 -185.96240234 152.01708984 C-190.38908546 155.67724775 -194.84173561 159.29883977 -199.33984375 162.87109375 C-201.52906188 164.6231112 -203.70652779 166.38739136 -205.87890625 168.16015625 C-206.57814209 168.73048584 -207.27737793 169.30081543 -207.99780273 169.88842773 C-209.3720748 171.01033721 -210.74535584 172.13346223 -212.11743164 173.25805664 C-213.4162782 174.31788555 -214.7212248 175.37028355 -216.03222656 176.41503906 C-217.37324146 177.49517165 -218.69245811 178.60280193 -219.99121094 179.73339844 C-223.49360452 182.64778646 -225.83909095 184.37192214 -230.5 184.375 C-232.2325 184.189375 -232.2325 184.189375 -234 184 C-234.36975652 168.05116858 -234.05064377 152.68807665 -231 137 C-230.86609863 136.30293945 -230.73219727 135.60587891 -230.59423828 134.88769531 C-224.17919969 102.96024262 -207.69678659 74.92878657 -185 52 C-184.39784668 51.3824585 -183.79569336 50.76491699 -183.17529297 50.12866211 C-178.48110215 45.35340695 -173.6427132 41.61861737 -168 38 C-167.12239014 37.43708252 -167.12239014 37.43708252 -166.22705078 36.86279297 C-117.35783048 5.90271192 -56.66114507 -1.1030172 0 0 Z " fill="#C26C29" transform="translate(889,58)"/>
</svg>
